<?xml version="1.0" standalone="no"?>
<svg viewBox="0 0 200 200" xmlns="http://www.w3.org/2000/svg">
  <path fill="#FDD89A" d="M43.4,-73.7C55.7,-68,64.8,-55.4,73.7,-41.9C82.5,-28.4,91.1,-14.2,93.1,1.1C95,16.5,90.3,32.9,79.5,43C68.7,53,51.7,56.7,37.5,63.5C23.2,70.3,11.6,80.4,0.4,79.8C-10.9,79.1,-21.7,67.8,-35.7,60.8C-49.7,53.8,-66.8,51.1,-74.3,41.7C-81.9,32.3,-80,16.1,-80.3,-0.2C-80.6,-16.5,-83.1,-33,-78.3,-47.2C-73.6,-61.5,-61.5,-73.6,-47.3,-78.2C-33,-82.8,-16.5,-79.8,-0.5,-78.9C15.5,-78.1,31.1,-79.4,43.4,-73.7Z" transform="translate(100 100)" />
</svg>
