<?xml version="1.0" standalone="no"?>
<svg xmlns:xlink="http://www.w3.org/1999/xlink" id="wave" style="transform:rotate(0deg); transition: 0.3s" viewBox="0 0 1440 250" version="1.1" xmlns="http://www.w3.org/2000/svg"><defs><linearGradient id="sw-gradient-0" x1="0" x2="0" y1="1" y2="0"><stop stop-color="rgba(243, 106, 62, 1)" offset="0%"/><stop stop-color="rgba(255, 179, 11, 1)" offset="100%"/></linearGradient></defs><path style="transform:translate(0, 0px); opacity:1" fill="url(#sw-gradient-0)" d="M0,100L60,83.3C120,67,240,33,360,20.8C480,8,600,17,720,41.7C840,67,960,108,1080,108.3C1200,108,1320,67,1440,70.8C1560,75,1680,125,1800,141.7C1920,158,2040,142,2160,120.8C2280,100,2400,75,2520,87.5C2640,100,2760,150,2880,158.3C3000,167,3120,133,3240,125C3360,117,3480,133,3600,129.2C3720,125,3840,100,3960,100C4080,100,4200,125,4320,137.5C4440,150,4560,150,4680,125C4800,100,4920,50,5040,45.8C5160,42,5280,83,5400,108.3C5520,133,5640,142,5760,129.2C5880,117,6000,83,6120,83.3C6240,83,6360,117,6480,112.5C6600,108,6720,67,6840,54.2C6960,42,7080,58,7200,62.5C7320,67,7440,58,7560,54.2C7680,50,7800,50,7920,70.8C8040,92,8160,133,8280,141.7C8400,150,8520,125,8580,112.5L8640,100L8640,250L8580,250C8520,250,8400,250,8280,250C8160,250,8040,250,7920,250C7800,250,7680,250,7560,250C7440,250,7320,250,7200,250C7080,250,6960,250,6840,250C6720,250,6600,250,6480,250C6360,250,6240,250,6120,250C6000,250,5880,250,5760,250C5640,250,5520,250,5400,250C5280,250,5160,250,5040,250C4920,250,4800,250,4680,250C4560,250,4440,250,4320,250C4200,250,4080,250,3960,250C3840,250,3720,250,3600,250C3480,250,3360,250,3240,250C3120,250,3000,250,2880,250C2760,250,2640,250,2520,250C2400,250,2280,250,2160,250C2040,250,1920,250,1800,250C1680,250,1560,250,1440,250C1320,250,1200,250,1080,250C960,250,840,250,720,250C600,250,480,250,360,250C240,250,120,250,60,250L0,250Z"/></svg>